<svg class="entretien-piscine" width="60" height="60" viewBox="0 0 247 191" fill="none" xmlns="http://www.w3.org/2000/svg">
  <path d="M243.131 158.659C234.654 158.659 230.217 161.067 226.301 163.19C222.754 165.114 219.691 166.776 213.205 166.776C206.719 166.776 203.656 165.115 200.109 163.19C196.194 161.067 191.756 158.659 183.279 158.659C174.806 158.659 170.37 161.067 166.458 163.191C162.914 165.115 159.854 166.776 153.373 166.776C146.891 166.776 143.829 165.115 140.284 163.191C136.37 161.067 131.933 158.659 123.458 158.659C114.986 158.659 110.551 161.067 106.638 163.191C103.095 165.115 100.034 166.776 93.5543 166.776C87.0768 166.776 84.0173 165.115 80.4749 163.191C76.5625 161.067 72.1285 158.659 63.6577 158.659C55.1869 158.659 50.7535 161.067 46.841 163.191C43.3001 165.115 40.2406 166.776 33.7631 166.776C27.2857 166.776 24.2262 165.115 20.6837 163.191C16.7713 161.067 12.3374 158.659 3.86707 158.659C1.7314 158.659 -0.000488281 160.363 -0.000488281 162.464C-0.000488281 164.565 1.73092 166.269 3.86707 166.269C10.3445 166.269 13.404 167.93 16.946 169.854C20.8584 171.979 25.2923 174.386 33.7631 174.386C42.2339 174.386 46.6679 171.978 50.5798 169.854C54.1222 167.93 57.1817 166.269 63.6587 166.269C70.1361 166.269 73.1956 167.93 76.7381 169.854C80.6505 171.979 85.0844 174.386 93.5552 174.386C102.027 174.386 106.462 171.978 110.376 169.854C113.919 167.93 116.98 166.269 123.459 166.269C129.942 166.269 133.004 167.931 136.549 169.854C140.463 171.978 144.9 174.386 153.374 174.386C161.847 174.386 166.282 171.978 170.195 169.854C173.739 167.931 176.799 166.269 183.28 166.269C189.766 166.269 192.829 167.931 196.375 169.855C200.291 171.979 204.729 174.386 213.206 174.386C221.683 174.386 226.12 171.978 230.037 169.855C233.583 167.931 236.646 166.269 243.132 166.269C245.268 166.269 247 164.566 247 162.464C247 160.363 245.268 158.659 243.131 158.659Z" stroke="blue" stroke-width="3"/>
  <path d="M213.206 183.01C206.72 183.01 203.657 181.348 200.11 179.424C196.195 177.301 191.757 174.893 183.28 174.893C174.807 174.893 170.371 177.301 166.459 179.425C162.915 181.348 159.855 183.01 153.374 183.01C146.892 183.01 143.83 181.348 140.285 179.425C136.37 177.301 131.934 174.893 123.459 174.893C114.987 174.893 110.552 177.301 106.639 179.425C103.096 181.348 100.035 183.01 93.5552 183.01C87.0778 183.01 84.0183 181.349 80.4759 179.425C76.5634 177.301 72.1295 174.893 63.6587 174.893C55.1879 174.893 50.7545 177.301 46.842 179.425C43.3006 181.349 40.2411 183.01 33.7636 183.01C31.6279 183.01 29.8961 184.713 29.8961 186.815C29.8961 188.916 31.6275 190.62 33.7636 190.62C42.2344 190.62 46.6679 188.212 50.5803 186.088C54.1227 184.164 57.1822 182.503 63.6592 182.503C70.1366 182.503 73.1962 184.164 76.7386 186.088C80.651 188.213 85.0849 190.62 93.5557 190.62C102.028 190.62 106.463 188.212 110.376 186.088C113.92 184.164 116.98 182.503 123.46 182.503C129.943 182.503 133.004 184.165 136.549 186.088C140.464 188.213 144.9 190.62 153.375 190.62C161.847 190.62 166.283 188.212 170.196 186.088C173.739 184.165 176.8 182.503 183.28 182.503C189.766 182.503 192.829 184.165 196.376 186.089C200.291 188.213 204.729 190.62 213.206 190.62C215.342 190.62 217.074 188.917 217.074 186.815C217.074 184.714 215.342 183.01 213.206 183.01Z" stroke="blue" stroke-width="3"/>
  <path d="M78.1217 53.1413C75.986 53.1413 74.2541 54.8447 74.2541 56.9462V150.289C74.2541 152.39 75.9855 154.094 78.1217 154.094C80.2578 154.094 81.9892 152.391 81.9892 150.289V56.9457C81.9892 54.8447 80.2578 53.1413 78.1217 53.1413Z" stroke="black" stroke-width="3"/>
  <path d="M189.503 0.380615H181.253C168.276 0.380615 156.148 6.4124 148.405 16.6146H134.797C135.327 15.2766 135.617 13.8224 135.617 12.3023C135.617 5.72849 130.181 0.380615 123.499 0.380615H115.249C92.6449 0.380615 74.2545 18.4731 74.2545 40.7113C74.2545 42.8124 75.986 44.5163 78.1221 44.5163C80.2583 44.5163 81.9897 42.8129 81.9897 40.7113C81.9897 22.6691 96.91 7.99 115.25 7.99H123.499C125.916 7.99 127.883 9.9245 127.883 12.3023C127.883 14.6801 125.916 16.6146 123.499 16.6146H111.124C108.988 16.6146 107.256 18.3179 107.256 20.4195C107.256 22.5211 108.988 24.2244 111.124 24.2244H150.404C151.693 24.2244 152.897 23.5922 153.616 22.5391C159.828 13.4295 170.16 7.99047 181.253 7.99047H189.503C191.92 7.99047 193.886 9.92497 193.886 12.3028C193.886 14.6805 191.92 16.615 189.503 16.615H181.253C167.748 16.615 156.759 27.4252 156.759 40.7118V125.94C156.759 128.041 158.491 129.745 160.627 129.745C162.763 129.745 164.495 128.041 164.495 125.94V40.7113C164.495 31.6202 172.013 24.2239 181.253 24.2239H189.504C196.186 24.2239 201.622 18.8761 201.622 12.3023C201.622 5.72849 196.185 0.380615 189.503 0.380615Z" stroke="black" stroke-width="3"/>
  <path d="M160.627 138.365C158.491 138.365 156.759 140.068 156.759 142.17V150.289C156.759 152.39 158.49 154.094 160.627 154.094C162.763 154.094 164.494 152.391 164.494 150.289V142.17C164.494 140.069 162.763 138.365 160.627 138.365Z" stroke="black" stroke-width="3"/>
  <path d="M144.126 97.7828H94.6228C92.4871 97.7828 90.7552 99.4862 90.7552 101.588V117.822C90.7552 119.923 92.4867 121.627 94.6228 121.627H144.126C146.262 121.627 147.993 119.923 147.993 117.822V101.588C147.993 99.4862 146.262 97.7828 144.126 97.7828ZM140.258 114.017H98.4904V105.393H140.258V114.017Z" stroke="black" stroke-width="3"/>
  <path d="M144.126 130.25H94.6228C92.4871 130.25 90.7552 131.954 90.7552 134.055V150.289C90.7552 152.39 92.4867 154.094 94.6228 154.094C96.759 154.094 98.4904 152.391 98.4904 150.289V137.86H140.258V150.289C140.258 152.39 141.99 154.094 144.126 154.094C146.262 154.094 147.993 152.391 147.993 150.289V134.055C147.993 131.954 146.262 130.25 144.126 130.25Z" stroke="black" stroke-width="3"/>
  <path d="M144.126 65.3154H94.6228C92.4871 65.3154 90.7552 67.0188 90.7552 69.1204V85.3543C90.7552 87.4554 92.4867 89.1592 94.6228 89.1592H144.126C146.262 89.1592 147.993 87.4559 147.993 85.3543V69.1204C147.993 67.0188 146.262 65.3154 144.126 65.3154ZM140.258 81.5489H98.4904V72.9248H140.258V81.5489Z" stroke="black" stroke-width="3"/>
  <path d="M144.126 32.848H98.748C94.3406 32.848 90.7552 36.3753 90.7552 40.7113V52.8864C90.7552 54.9875 92.4867 56.6914 94.6228 56.6914H144.126C146.262 56.6914 147.993 54.988 147.993 52.8864V36.6525C147.993 34.5514 146.262 32.848 144.126 32.848ZM140.258 49.0815H98.4904V40.7108C98.4904 40.5708 98.6057 40.4574 98.748 40.4574H140.258V49.0815Z" stroke="black" stroke-width="3"/>
</svg>
