<svg width="60" height="60" viewBox="0 0 434 371" fill="none" xmlns="http://www.w3.org/2000/svg">
  <path d="M429.603 1.78899C427.482 0.403989 424.805 0.182986 422.485 1.20399L320.716 45.943L113.099 0.740987L113.098 0.744988C111.571 0.411988 109.954 0.554987 108.482 1.20299L4.482 46.922C1.758 48.12 0 50.813 0 53.788V362.934C0 365.467 1.279 367.83 3.4 369.214C4.638 370.022 6.065 370.434 7.5 370.434C8.524 370.434 9.552 370.225 10.518 369.8L112.28 325.065L319.908 370.259L319.912 370.24C320.436 370.354 320.967 370.43 321.504 370.43C322.527 370.43 323.555 370.221 324.521 369.796L428.521 324.086C431.245 322.889 433.003 320.195 433.003 317.22V8.06999C433.003 5.53599 431.724 3.17399 429.603 1.78899ZM418.003 209.27L343.874 241.857L379.232 193.204C389.214 179.468 393.978 162.581 392.647 145.653C392.351 141.886 391.74 138.173 390.864 134.537L418.003 122.608V209.27ZM15 161.737L104 122.611V209.272L15 248.397V161.737ZM367.098 184.386L321.5 247.128L275.902 184.386C259.5 161.817 261.914 131.118 281.642 111.39C292.288 100.744 306.444 94.88 321.499 94.88C336.556 94.88 350.711 100.743 361.356 111.39C381.086 131.118 383.5 161.817 367.098 184.386ZM314.003 80.276C297.775 81.96 282.732 89.088 271.035 100.784C261.811 110.008 255.352 121.555 252.244 134.086L218.962 126.84C214.91 125.959 210.919 128.526 210.038 132.572C209.157 136.619 211.723 140.615 215.77 141.496L250.172 148.986C249.672 164.786 254.44 180.371 263.767 193.205L303.858 248.37L119 208.124V120.427L168.599 131.225C172.65 132.108 176.642 129.539 177.523 125.493C178.404 121.446 175.837 117.45 171.791 116.569L119 105.076V17.377L314.003 59.832V80.276ZM119 223.475L314.003 265.929V353.621L119 311.176V223.475ZM418.003 19.559V106.223L385.82 120.369C382.359 113.16 377.701 106.52 371.965 100.783C360.27 89.088 345.23 81.961 329.003 80.276V58.685L418.003 19.559ZM104 19.559V106.225L15 145.351V58.684L104 19.559ZM15 351.444V264.781L104 225.657V312.32L15 351.444ZM329.003 351.441V264.78L418.003 225.655V312.323L329.003 351.441Z" fill="black"/>
  <path d="M187.445 132.031C188.566 134.689 191.157 136.538 194.054 136.654C197.307 136.785 200.322 134.743 201.428 131.688C202.547 128.598 201.428 125.021 198.777 123.092C196.371 121.341 193.063 121.212 190.513 122.731C187.379 124.601 186.02 128.657 187.445 132.031C187.255 131.581 187.635 132.481 187.445 132.031Z" fill="black"/>
  <path d="M321.5 116.182C302.165 116.182 286.435 131.912 286.435 151.248C286.435 170.584 302.165 186.314 321.5 186.314C340.836 186.314 356.566 170.584 356.566 151.248C356.566 131.912 340.836 116.182 321.5 116.182ZM321.5 171.314C310.436 171.314 301.435 162.313 301.435 151.248C301.435 140.183 310.436 131.182 321.5 131.182C332.564 131.182 341.566 140.183 341.566 151.248C341.566 162.313 332.564 171.314 321.5 171.314Z" fill="black"/>
</svg>
