<svg class="taille" width="53" height="58" viewBox="0 0 53 58" fill="none" xmlns="http://www.w3.org/2000/svg">
  <path d="M52.514 29.509C52.147 27.417 50.241 26.23 48.275 26.229C48.71 24.233 47.895 21.981 45.817 21.224C44.009 20.565 42.158 21.383 41.137 22.835C40.789 22.026 40.105 21.293 39.462 20.842C39.273 20.709 39.068 20.595 38.857 20.491C40.016 19.292 40.292 17.698 39.754 16.112C43.063 15.34 45.766 12.347 44.355 8.73301C43.201 5.77701 39.003 4.64601 36.955 7.24801C37.584 0.448007 28.333 -2.95899 25.711 3.27501C24.072 1.57901 21.897 -0.112993 19.522 0.981007C18.121 1.62701 17.251 2.95701 17.494 4.26601C16.763 3.94401 15.823 4.11701 15.2 4.70201C14.607 5.25801 14.318 6.00601 14.07 6.76101C13.828 7.49801 13.467 8.32501 13.293 9.14401C12.805 8.81601 12.2 8.67901 11.543 8.88201C10.492 9.20701 9.86901 10.311 9.99101 11.345C8.07801 10.183 5.23501 10.233 4.02101 12.371C3.46801 13.344 3.43101 14.612 3.82901 15.644C3.96301 15.992 4.17701 16.366 4.44801 16.689C2.71401 17.24 1.13001 18.384 0.905008 20.297C0.707008 21.983 1.86801 23.944 3.52501 24.249C2.50601 25.384 1.98701 27.031 3.08701 28.333C3.92301 29.322 5.36201 29.479 6.40501 28.897C7.28901 32.201 11.924 32.884 13.514 29.747C15.49 31.866 18.113 33.317 21.015 33.344C20.979 33.415 20.956 33.497 20.955 33.595C20.892 40.915 20.542 48.164 19.631 55.432C19.591 55.753 19.887 56.045 20.165 56.134C22.825 56.983 30.893 59.058 32.191 55.185C32.965 52.875 30.844 49.328 30.24 47.094C29.202 43.255 28.444 39.366 27.869 35.436C29.58 35.908 31.425 36.185 33.226 36.193C32.422 39.885 37.391 42.141 40.35 39.682C41.683 42.594 45.418 44.254 48.426 42.707C51.718 41.013 52.204 36.627 50.122 33.868C51.769 33.164 52.844 31.394 52.514 29.509ZM15.378 7.28701C15.635 6.48801 16.666 4.02501 17.803 5.44501C17.897 5.56301 18.019 5.57701 18.125 5.53301C18.44 5.86801 19.034 5.48701 18.901 5.05701C20.675 2.02901 22.409 1.52101 24.104 3.53401C24.597 4.01101 25.066 4.51001 25.511 5.03101C25.848 5.40801 26.513 5.20701 26.633 4.73501C27.267 2.23601 29.794 0.639007 32.346 1.43101C34.689 2.15701 35.786 4.43801 36.145 6.66601C35.955 6.56101 35.76 6.48701 35.563 6.50001C35.276 6.51901 34.946 6.81101 35.08 7.13401C35.308 7.68501 35.942 7.95201 36.369 8.35501C36.809 8.77001 37.288 9.28801 37.593 9.81201C37.762 10.103 38.241 9.91201 38.142 9.58001C38.034 9.21701 37.985 8.90501 37.803 8.56401C37.724 8.41701 37.62 8.28601 37.529 8.14701C39.816 6.53601 43.092 7.13501 43.315 10.436C43.497 13.125 41.107 14.734 38.755 15.078C38.352 15.137 38.228 15.66 38.394 15.964C39.217 17.472 39.021 18.88 38.085 20.19C37.191 19.936 36.223 19.959 35.39 20.406C35.037 20.595 34.733 20.846 34.476 21.135C34.484 21.083 34.487 21.027 34.475 20.966C34.4 20.567 34.308 20.167 34.25 19.765C34.208 19.478 34.177 19.27 34.079 19.06C34.41 18.845 34.681 18.559 34.822 18.165C34.938 17.84 34.548 17.628 34.287 17.754C33.84 17.97 33.482 18.319 33.028 18.519C32.543 18.732 32.032 18.778 31.51 18.71C31.106 18.657 31.03 19.318 31.415 19.414C31.91 19.538 32.511 19.557 33.077 19.449C33.153 20.041 33.474 20.65 33.662 21.191C33.763 21.483 34.04 21.537 34.245 21.438C34.079 21.669 33.93 21.911 33.817 22.171C33.763 22.217 33.714 22.274 33.678 22.349C32.671 24.442 30.014 25.241 28.175 23.652C27.873 23.391 27.4 23.408 27.186 23.78C26.433 25.082 24.99 25.431 23.664 24.937C23.617 23.529 23.793 22.099 23.969 20.851C24.044 20.32 23.329 20.092 23.148 20.625C22.597 22.247 22.169 23.774 21.997 25.486C21.96 25.859 22.142 27.594 21.926 28.104C20.554 31.341 18.143 27.593 16.603 24.415C16.759 24.419 16.906 24.398 17.056 24.386C17.478 25.267 18.531 25.382 19.422 25.09C19.46 25.291 19.505 25.49 19.543 25.69C19.588 25.926 19.848 26.095 20.076 26.096C20.551 26.098 21.027 26.101 21.502 26.103C22.127 26.106 22.094 25.222 21.502 25.154C21.2 25.119 20.898 25.085 20.596 25.05C20.571 24.744 20.541 24.439 20.534 24.132C20.521 23.563 19.841 23.292 19.431 23.675C19.149 23.938 18.88 23.991 18.608 23.96C21.389 22.55 22.185 18.199 18.886 16.445C18.745 16.37 18.599 16.372 18.463 16.405C20.295 15.261 21.024 12.561 19.554 10.808C18.224 9.22301 15.848 9.18001 14.276 10.334C14.873 9.45201 15.057 8.28501 15.378 7.28701ZM33.554 31.705C32.851 31.728 32.143 31.714 31.439 31.674C30.313 31.61 28.899 31.63 27.843 31.255C24.943 30.223 23.947 28.042 23.716 25.693C25.131 26.484 26.748 26.127 27.832 24.972C29.618 26.182 32.033 25.96 33.595 24.602C33.665 24.884 33.759 25.159 33.903 25.414C32.56 25.519 31.207 26.851 30.981 28.086C30.664 29.818 31.917 31.38 33.554 31.705ZM7.42801 27.665C7.43501 27.089 6.60401 26.843 6.32401 27.366C5.45901 28.983 3.72101 27.672 3.58101 26.409C3.48501 25.547 3.87201 24.842 4.42601 24.244C4.50701 24.229 4.58701 24.219 4.66901 24.196C5.30601 24.018 5.20901 22.945 4.50801 23.005C2.71401 23.158 1.68101 21.161 2.39501 19.602C2.90501 18.49 3.99601 17.778 5.13801 17.275C5.39501 17.418 5.67401 17.507 5.97601 17.491C6.02201 17.907 6.13901 18.314 6.33901 18.707C6.50301 19.031 7.03901 18.806 6.92701 18.459C6.72901 17.842 6.71901 17.187 6.94401 16.574C7.14701 16.02 7.67501 15.659 7.82401 15.103C7.91401 14.769 7.61401 14.531 7.30501 14.584C6.59601 14.705 6.20601 15.617 6.05001 16.28C5.66201 15.986 5.29201 15.722 5.08001 15.208C4.79801 14.524 4.81301 13.696 5.15901 13.036C6.14501 11.156 8.80001 11.517 10.275 12.5C10.448 12.615 10.632 12.547 10.744 12.415C10.989 12.382 11.205 12.174 11.113 11.872C10.923 11.415 10.93 10.941 11.134 10.45C12.622 9.64001 13.37 9.95801 13.375 11.403C13.341 11.845 13.983 12.114 14.272 11.775C15.334 10.53 17.306 10.262 18.508 11.467C19.771 12.733 19.352 14.838 17.983 15.845C17.992 15.473 18.014 15.105 18.073 14.752C18.233 13.8 16.773 13.794 16.934 14.752C17.087 15.663 17.007 16.672 17.034 17.595C17.052 18.199 17.955 18.2 17.973 17.595C17.976 17.486 17.975 17.374 17.976 17.263C18.01 17.324 18.053 17.383 18.119 17.437C19.189 18.317 19.981 19.43 19.76 20.893C19.515 22.518 18.105 23.662 16.503 23.816C16.438 23.822 16.398 23.858 16.355 23.889C15.787 22.668 15.371 21.6 15.226 21.155C15.088 20.73 14.358 20.639 14.27 21.155C14.283 21.076 13.598 24.771 14.014 24.613C13.526 24.798 11.493 22.076 11.009 21.49C10.887 21.342 10.716 21.358 10.592 21.449C10.468 21.108 9.84501 21.213 9.87001 21.613C10.018 24.064 11.03 26.61 12.622 28.702C11.43 31.631 7.38901 30.942 7.42801 27.665ZM47.96 41.186C45.251 42.708 42.244 40.905 41.314 38.16C41.113 37.567 40.379 37.49 40.032 37.992C38.052 40.26 36.276 40.03 34.705 37.302C34.659 36.912 34.649 36.524 34.664 36.137C38.865 35.78 42.521 33.702 43.137 28.597C43.221 27.902 42.058 27.75 41.915 28.432C40.996 32.797 37.977 34.467 34.509 34.726C34.305 34.615 34.023 34.619 33.839 34.769C31.608 34.82 29.237 34.332 27.145 33.624C26.719 33.48 26.114 33.877 26.179 34.36C26.652 37.922 27.249 41.456 28.095 44.95C28.579 46.946 29.139 48.923 29.757 50.882C30.788 54.149 30.902 55.754 26.685 55.794C24.357 55.816 22.202 56.014 21.307 53.625C20.714 52.041 21.841 48.113 21.945 46.36C22.195 42.111 22.248 37.851 22.063 33.599C22.055 33.411 21.971 33.276 21.856 33.187C22.057 32.949 22.028 32.532 21.646 32.434C18.849 31.72 16.425 30.929 14.302 28.836C12.503 27.062 11.298 24.842 10.779 22.397C11.755 24.002 12.901 25.222 14.437 26.425C14.845 26.745 15.405 26.456 15.304 25.92C14.143 19.732 14.722 23.576 15.398 24.6C16.134 25.714 16.511 27.002 17.379 28.058C18.78 29.762 20.285 30.65 22.47 31.001C22.706 31.039 23.036 30.895 23 30.597C22.868 29.488 22.74 28.39 22.756 27.271C22.761 26.919 22.872 26.4 23.007 25.831C23.006 26.159 23.018 26.428 23.048 26.584C23.454 28.67 24.513 30.644 26.433 31.696C30.68 34.022 38.301 33.242 41.424 29.497C41.86 28.974 41.113 28.217 40.671 28.744C38.98 30.759 36.676 31.489 34.249 31.669C34.384 31.503 34.359 31.198 34.103 31.137C32.829 30.833 31.763 29.473 32.212 28.134C32.659 26.802 33.951 26.727 35.106 26.523C35.339 26.482 35.407 26.281 35.376 26.088C35.376 26.079 35.371 26.07 35.371 26.06C35.36 26.008 35.346 25.961 35.319 25.915C35.304 25.891 35.292 25.866 35.268 25.845C34.597 25.234 34.387 24.302 34.552 23.435C34.658 23.246 34.755 23.049 34.836 22.839C34.87 22.75 34.877 22.666 34.868 22.586C35.133 22.093 35.524 21.672 36.051 21.442C36.976 21.038 38.06 21.317 38.845 21.9C39.498 22.385 39.752 22.988 40.039 23.623C39.987 23.618 39.939 23.604 39.886 23.602C39.736 23.599 39.582 23.607 39.434 23.636C39.211 23.68 39.149 23.83 38.949 23.897C38.659 23.994 38.783 24.385 39.072 24.345C39.103 24.341 39.298 24.444 39.357 24.458C39.468 24.483 39.583 24.485 39.695 24.511C39.912 24.563 40.137 24.643 40.332 24.749C40.417 24.795 40.493 24.858 40.567 24.925C40.584 24.94 40.599 24.956 40.617 24.968C40.855 25.192 41.066 25.466 41.374 25.529C41.594 25.574 41.862 25.467 41.912 25.223C41.99 24.842 41.783 24.522 41.496 24.268C43.064 20.842 48.552 22.916 46.761 26.652C46.515 27.164 46.92 27.78 47.512 27.628C51.493 26.605 52.358 31.738 48.874 33.158C48.65 33.249 48.532 33.486 48.524 33.71C48.502 33.624 48.479 33.543 48.456 33.471C48.233 32.768 47.795 32.196 47.191 31.777C46.853 31.542 46.443 32.074 46.75 32.349C47.188 32.74 47.477 33.238 47.55 33.825C47.612 34.327 47.289 34.843 47.572 35.3C47.705 35.515 47.952 35.559 48.171 35.457C48.68 35.219 48.689 34.545 48.584 33.98C48.658 34.114 48.794 34.206 49.013 34.182C49.123 34.17 49.223 34.133 49.33 34.112C49.334 34.119 49.334 34.126 49.338 34.133C50.876 36.443 50.512 39.752 47.96 41.186Z" stroke="black" stroke-width="1"/>
  <path d="M31.834 11.583C31.142 9.61001 28.827 9.65801 27.105 10.25C26.907 9.33701 26.205 8.54801 25.158 8.58001C23.811 8.62101 23.095 10.077 23.488 11.247C23.631 11.675 24.242 11.501 24.159 11.062C25.336 9.44601 25.94 9.41401 25.971 10.965C25.843 11.483 26.381 11.865 26.84 11.633C27.782 11.154 29.571 10.576 30.444 11.583C31.115 12.357 30.69 13.748 29.592 13.721C29.341 13.715 29.174 13.847 29.094 14.023C28.75 13.896 28.386 13.825 28.003 13.818C27.655 13.811 27.561 14.376 27.919 14.44C28.484 14.54 29.008 14.787 29.423 15.188C29.814 15.566 29.88 16.189 30.328 16.472C30.579 16.63 30.916 16.475 30.994 16.201C31.126 15.736 30.781 15.254 30.401 14.883C31.625 14.56 32.254 12.78 31.834 11.583Z" stroke="green" stroke-width="1"/>
</svg>
