<?xml version="1.0" encoding="iso-8859-1"?>
<!-- Generator: Adobe Illustrator 18.0.0, SVG Export Plug-In . SVG Version: 6.00 Build 0)  -->
<!DOCTYPE svg PUBLIC "-//W3C//DTD SVG 1.1//EN" "http://www.w3.org/Graphics/SVG/1.1/DTD/svg11.dtd">
<svg version="1.1" id="Capa_1" xmlns="http://www.w3.org/2000/svg"  x="0px" y="0px"
	 viewBox="0 0 58.946 58.946" style="enable-background:new 0 0 58.946 58.946;" xml:space="preserve">

	<path style="fill:#1D1D1B;" d="M51.338,19.281c0.044-0.015,0.087-0.017,0.132-0.041c6.885-3.644,6.281-13.29,0.273-17.518
		c-6.84-4.815-13.114,1.293-13.739,8.155c-0.372-0.286-0.854,0.204-0.523,0.569c0.153,0.169,0.317,0.322,0.472,0.489
		c-0.001,0.183-0.001,0.366,0.007,0.55c0.013,0.322,0.524,0.428,0.59,0.08c0.001-0.003,0.001-0.007,0.002-0.01
		c2.254,2.319,4.713,4.347,7.494,6.058c1.157,0.712,2.76,1.351,3.798,2.24c5.572,4.77,1.003,8.66-1.654,11.987
		c-1.117,1.398-2.643,4.253-4.2,5.135c-2.152,0.308-4.304,0.617-6.456,0.925c-1.272-0.825-2.497-1.718-3.672-2.679
		c-0.892-0.703-10.199-8.701-9.763-9.19c0.136-0.152,0.038-0.372-0.16-0.387c-0.094-0.007-0.188-0.015-0.283-0.022
		c-0.049-0.004-0.101,0.013-0.152,0.038c0.167-1.248,2.404-2.228,3.279-2.926c1.553-1.237,3.013-2.58,4.361-4.039
		c2.484-2.686,4.617-5.72,6.182-9.03C37.53,9.232,37.15,8.85,36.792,8.89c-0.159-0.15-0.397-0.216-0.658-0.083
		c-6.255,3.185-12.719,8.344-13.978,15.622c-0.046,0.029-0.089,0.063-0.135,0.092c-0.326,0.204-0.463,0.738-0.131,1.017
		c0.34,0.259,0.652,0.546,0.951,0.848c-1.415,1.604-2.759,3.273-4.168,4.883c-1.386,1.584-3.088,3.005-4.288,4.729
		c-0.152,0.218-0.038,0.476,0.155,0.607c-1.85-0.08-3.753,0.336-5.446,1.043c-0.121,0.05-0.201,0.135-0.246,0.232
		c-0.176,0.083-0.302,0.303-0.186,0.505c0.59,1.023,1.294,1.965,2.08,2.827c-1.383,0.005-2.76,0.088-3.831,1.107
		c-0.948,0.902-1.341,2.535-0.38,3.574c0.711,0.768,2.003,1.091,2.865,0.377c1.262-1.045,0.118-3.184,1.484-4.032
		c0.155-0.096,0.204-0.277,0.17-0.434c0.078-0.011,0.159-0.024,0.235-0.034c0.002,0,0.003-0.002,0.005-0.003
		c1.922,1.917,4.299,3.347,6.908,4.13c-0.028,0.045-0.049,0.095-0.07,0.145c-0.884,0.614-1.511,1.466-1.719,2.647
		c-0.208,1.186,0.149,2.786,1.417,3.256c1.177,0.436,2.095-0.577,2.118-1.692c0.014-0.662-0.228-1.262-0.473-1.86
		c-0.178-0.434-0.462-0.952-0.439-1.441c0.014-0.307,0.137-0.521,0.238-0.767c0.42,0.095,0.844,0.174,1.274,0.234
		c0.167,0.023,0.309-0.018,0.431-0.087c0.242,0.087,0.521,0.037,0.658-0.251c0.791-1.678,0.634-3.529-0.134-5.13
		c0.131-0.024,0.254-0.089,0.329-0.207c1.854-2.956,2.659-7.347,3.277-10.913c2.604,3.076,7.308,6.286,9.125,7.628
		c5.011,3.701,8.17,3.684,12.213-1.226c2.809-3.411,9.493-9.14,7.231-14.278C53.18,20.838,52.309,19.998,51.338,19.281z
		 M42.112,13.151c0.057,0.018,0.105,0.042,0.167,0.057c0.321,0.08,0.485-0.342,0.219-0.52c-1.93-1.299,3.218-9.841,7.234-5.078
		c1.265,1.501,1.581,3.61,0.762,5.399c-0.697,1.521-1.896,2.095-3.109,3.084c-0.173,0.141-0.188,0.381-0.104,0.579
		C45.51,15.543,43.789,14.384,42.112,13.151z M50.378,18.621c-0.36-0.232-0.722-0.456-1.073-0.674
		c-0.514-0.319-1.015-0.64-1.521-0.96c5.841-0.631,5.868-10.118,0.733-11.932c-2.54-0.898-4.814,0.859-6.211,2.842
		c-0.763,1.083-1.933,3.237-1.235,4.482c-0.774-0.594-1.54-1.202-2.296-1.847c1.349-5.49,5.26-11.823,11.759-7.779
		c5.702,3.548,5.74,11.667,0.184,15.203C50.449,18.129,50.359,18.38,50.378,18.621z M9.307,42.618
		c-0.278,0.743,0.057,2.751-0.907,2.9c-0.42,0.065-0.899-0.245-1.083-0.616c-0.285-0.575,0.057-1.23,0.419-1.677
		c0.456-0.563,1.126-0.896,1.841-1.112C9.472,42.262,9.379,42.427,9.307,42.618z M35.503,10.602
		c-3.283,5.154-7.223,9.656-12.298,13.116C25.286,17.514,30.232,14.095,35.503,10.602z M18.83,50.429
		c-0.267,0.423-0.831,0.335-1.123-0.073c-0.153-0.213-0.204-0.583-0.215-0.838c-0.033-0.698,0.209-1.455,0.596-2.125
		c0.113,0.597,0.329,1.189,0.466,1.537C18.693,49.288,19.061,50.063,18.83,50.429z M20.654,45.147
		c-4.404-1.117-8.052-3.354-11.038-6.748c2.591-0.67,5.647-1.064,8.078,0.302C20.092,40.047,21.161,42.543,20.654,45.147z
		 M22.58,34.94c-0.569,1.675-1.322,3.363-1.594,5.117c-0.417-0.626-0.928-1.194-1.514-1.671c-1.319-1.074-2.872-1.609-4.481-1.751
		c0.007-0.004,0.014-0.004,0.021-0.009c1.828-1.226,3.297-3.152,4.722-4.815c1.33-1.552,2.585-3.188,3.651-4.936
		c0.168,0.718,0.596,1.49,1.185,2.281C23.871,31.07,23.235,33.01,22.58,34.94z"/>
	<path style="fill:#1D1D1B;" d="M13.816,45.742c-0.13-0.311-0.6-0.204-0.519,0.143c0.029,0.121,0.057,0.25,0.086,0.378
		c-0.059,0.066-0.104,0.147-0.116,0.24c-0.125,0.971-1.707,0.709-2.39,0.991c-0.619,0.256-1.109,0.757-1.354,1.382
		c-0.476,1.216,0.123,2.575,1.307,3.106c1.247,0.56,2.602-0.068,3.301-1.173C15.177,49.158,14.497,47.374,13.816,45.742z
		 M13.232,49.925c-0.354,0.574-1.062,1.12-1.773,0.898c-0.842-0.263-1.016-1.355-0.431-1.931c0.689-0.679,1.836-0.351,2.61-0.973
		C13.676,48.638,13.589,49.347,13.232,49.925z"/>
	<path style="fill:#1D1D1B;" d="M15.4,52.072c-0.054-0.176-0.261-0.213-0.4-0.144c-0.287-0.392-0.994-0.1-0.834,0.403
		c0.167,0.527-0.432,0.969-0.833,1.11c-0.221,0.078-0.465,0.102-0.693,0.156c-0.388,0.091-0.788,0.184-1.14,0.381
		c-0.503,0.281-0.873,0.715-1.076,1.254c-0.442,1.168-0.063,2.637,1.005,3.332c1.279,0.832,2.866,0.201,3.747-0.903
		C16.504,55.998,15.964,53.913,15.4,52.072z M13.946,57.028c-1.127,0.98-2.623,0.169-2.309-1.299
		c0.264-1.236,1.984-0.968,2.84-1.618c0.215-0.163,0.386-0.354,0.517-0.561C15.054,54.834,14.915,56.185,13.946,57.028z"/>
	<path style="fill:#1D1D1B;" d="M7.795,52.758c-0.124-0.797-1.689-2.568-0.92-3.149c0.338-0.255,0.241-0.794-0.221-0.816
		c-0.388-0.018-0.698,0.143-0.914,0.4c-2.542,0.102-4.49,4.873-2.258,6.537c1.191,0.888,3.033,0.498,3.844-0.721
		C7.762,54.353,7.915,53.532,7.795,52.758z M3.813,53.576c-0.041-0.875,0.606-2.79,1.599-3.552c-0.003,0.027-0.009,0.052-0.01,0.079
		c-0.058,1.195,1.187,1.887,1.241,3.062C6.733,55.112,3.911,55.658,3.813,53.576z"/>

</svg>
