<svg class="title"  width="416" height="118" viewBox="0 0 416 118" fill="none" xmlns="http://www.w3.org/2000/svg">

  <path d="M114.1 7.2V4.7H111.6H97.05H95.4299L94.7681 6.17874L58.65 86.8801L22.5319 6.17874L21.8701 4.7H20.25H5.54999H3.04999V7.2V111V113.5H5.54999H19.2H21.7V111V45.1736L51.5675 112.02L52.2288 113.5H53.85H63.45H65.0728L65.7334 112.018L95.45 45.3493V111V113.5H97.95H111.6H114.1V111V7.2ZM134.369 87.4731L134.378 87.489L134.387 87.5047C139.304 95.9781 145.967 102.645 154.353 107.467L154.363 107.473L154.374 107.479C162.769 112.201 172.045 114.55 182.149 114.55C192.349 114.55 201.675 112.204 210.075 107.479L210.085 107.473L210.095 107.467C218.486 102.643 225.105 95.9689 229.923 87.4846C234.759 78.9695 237.149 69.336 237.149 58.65C237.149 47.9641 234.759 38.3306 229.923 29.8154C225.104 21.3302 218.483 14.7031 210.086 9.97725C201.686 5.14932 192.355 2.75 182.149 2.75C172.039 2.75 162.759 5.1516 154.363 9.97723C145.963 14.7048 139.295 21.3814 134.38 29.9568L134.375 29.9654C129.542 38.4769 127.149 48.0594 127.149 58.65C127.149 69.241 129.542 78.8682 134.369 87.4731ZM200.551 92.9339L200.543 92.9386L200.535 92.9433C195.151 96.0994 189.044 97.7 182.149 97.7C175.258 97.7 169.096 96.101 163.605 92.9385C158.234 89.7878 153.952 85.2912 150.757 79.3765C147.678 73.4928 146.099 66.6075 146.099 58.65C146.099 50.5831 147.682 43.7042 150.752 37.9319C153.949 32.0101 158.236 27.5092 163.613 24.3568C168.992 21.2037 175.148 19.6 182.149 19.6C189.151 19.6 195.306 21.2037 200.685 24.3567C206.057 27.5061 210.289 31.9996 213.385 37.91L213.396 37.9312L213.407 37.9521C216.57 43.7201 218.199 50.5913 218.199 58.65C218.199 66.602 216.573 73.4818 213.399 79.3627L213.392 79.3763L213.385 79.39C210.294 85.2894 206.021 89.7816 200.551 92.9339ZM341.408 7.33259L342.685 3.95H339.069H324.669H322.919L322.32 5.59408L291.819 89.298L261.318 5.59408L260.719 3.95H258.969H244.419H240.804L242.08 7.33259L281.53 111.883L282.14 113.5H283.869H299.619H301.348L301.958 111.883L341.408 7.33259ZM408.286 52.5V50H405.786H370.186V20.05H410.286H412.786V17.55V6.30001V3.80001H410.286H354.036H351.536V6.30001V111V113.5H354.036H410.286H412.786V111V99.75V97.25H410.286H370.186V66.25H405.786H408.286V63.75V52.5Z" stroke="black" stroke-width="5"/>

</svg>
