<?xml version="1.0" encoding="UTF-8" standalone="no"?>
<svg
   xmlns:dc="http://purl.org/dc/elements/1.1/"
   xmlns:cc="http://creativecommons.org/ns#"
   xmlns:rdf="http://www.w3.org/1999/02/22-rdf-syntax-ns#"
   xmlns:svg="http://www.w3.org/2000/svg"
   xmlns="http://www.w3.org/2000/svg"
   xmlns:sodipodi="http://sodipodi.sourceforge.net/DTD/sodipodi-0.dtd"
   xmlns:inkscape="http://www.inkscape.org/namespaces/inkscape"
   width="210mm"
   height="297mm"
   viewBox="0 0 210 297"
   version="1.1"
   id="svg91"
   inkscape:version="1.0.2-2 (e86c870879, 2021-01-15)"
   sodipodi:docname="dessin.svg">
  <defs
     id="defs85" />
  <sodipodi:namedview
     id="base"
     pagecolor="#ffffff"
     bordercolor="#666666"
     borderopacity="1.0"
     inkscape:pageopacity="0.0"
     inkscape:pageshadow="2"
     inkscape:zoom="0.35"
     inkscape:cx="400"
     inkscape:cy="560"
     inkscape:document-units="mm"
     inkscape:current-layer="layer1"
     inkscape:document-rotation="0"
     showgrid="false"
     inkscape:window-width="1438"
     inkscape:window-height="967"
     inkscape:window-x="1946"
     inkscape:window-y="38"
     inkscape:window-maximized="0" />
  <metadata
     id="metadata88">
    <rdf:RDF>
      <cc:Work
         rdf:about="">
        <dc:format>image/svg+xml</dc:format>
        <dc:type
           rdf:resource="http://purl.org/dc/dcmitype/StillImage" />
        <dc:title></dc:title>
      </cc:Work>
    </rdf:RDF>
  </metadata>
  <g
     inkscape:label="Calque 1"
     inkscape:groupmode="layer"
     id="layer1">
    <g
       aria-label="Du JARDIN AU POTAGER"
       id="text12"
       style="font-style:normal;font-weight:normal;font-size:10.5833px;line-height:1.25;font-family:sans-serif;fill:#000000;fill-opacity:1;stroke:none;stroke-width:0.264583"
       transform="translate(15.771122,45.42468)">
      <path
         d="m 31.724877,102.74974 q 0,1.04903 -0.459919,1.90169 -0.454751,0.85266 -1.214392,1.32291 -0.527098,0.32556 -1.178219,0.47025 -0.645953,0.1447 -1.705317,0.1447 h -1.943027 v -7.694599 h 1.922357 q 1.126543,0 1.787999,0.165364 0.666624,0.160196 1.126542,0.444415 0.78548,0.490925 1.224728,1.30741 0.439248,0.81649 0.439248,1.93786 z m -1.069699,-0.0155 q 0,-0.90434 -0.315225,-1.52445 -0.315225,-0.62012 -0.940508,-0.97668 -0.454751,-0.258385 -0.966346,-0.35657 -0.511595,-0.103353 -1.224728,-0.103353 h -0.961178 v 5.937603 h 0.961178 q 0.738971,0 1.286739,-0.10852 0.552937,-0.10852 1.012855,-0.40307 0.573607,-0.36691 0.857826,-0.96635 0.289387,-0.59945 0.289387,-1.49861 z"
         style="stroke-width:0.264583"
         id="path22" />
      <path
         d="m 38.086226,106.58929 h -0.971514 v -0.64079 q -0.490924,0.38757 -0.940508,0.59428 -0.449583,0.2067 -0.992184,0.2067 -0.909503,0 -1.41593,-0.55293 -0.506427,-0.55811 -0.506427,-1.63297 v -3.74653 h 0.971513 v 3.28661 q 0,0.43925 0.04134,0.75447 0.04134,0.31006 0.1757,0.53227 0.139526,0.22737 0.361734,0.33073 0.222208,0.10335 0.645953,0.10335 0.377237,0 0.821653,-0.19637 0.449583,-0.19637 0.837155,-0.50126 v -4.3098 h 0.971514 z"
         style="stroke-width:0.264583"
         id="path24" />
      <path
         d="m 46.617978,104.58942 q 0,1.01285 -0.620116,1.56062 -0.614947,0.54777 -1.65364,0.54777 -0.248046,0 -0.661456,-0.0465 -0.413411,-0.0413 -0.692462,-0.10335 v -0.95602 h 0.05684 q 0.211873,0.0724 0.521931,0.14987 0.310057,0.0775 0.635618,0.0775 0.475422,0 0.754473,-0.10852 0.28422,-0.10852 0.418578,-0.31006 0.139526,-0.2067 0.175699,-0.50642 0.04134,-0.29973 0.04134,-0.69247 v -4.490664 h -1.627802 v -0.816485 h 2.650993 z"
         style="stroke-width:0.264583"
         id="path26" />
      <path
         d="m 54.622631,106.58929 h -1.090369 l -0.754473,-2.14457 h -3.327952 l -0.754474,2.14457 H 47.65667 l 2.800854,-7.694599 h 1.364254 z m -2.160068,-3.02306 -1.34875,-3.77754 -1.353918,3.77754 z"
         style="stroke-width:0.264583"
         id="path28" />
      <path
         d="m 62.157032,106.58929 h -1.32808 l -2.573478,-3.05924 h -1.441768 v 3.05924 h -1.02319 v -7.694599 h 2.1549 q 0.69763,0 1.162716,0.09302 0.465087,0.08785 0.837156,0.320393 0.418577,0.263549 0.651121,0.666624 0.237711,0.397902 0.237711,1.012852 0,0.83199 -0.418578,1.39526 -0.418578,0.5581 -1.152381,0.84232 z m -2.392611,-5.52936 q 0,-0.33073 -0.118856,-0.58395 -0.113687,-0.25838 -0.382404,-0.43408 -0.222208,-0.149857 -0.527098,-0.206701 -0.30489,-0.06201 -0.7183,-0.06201 h -1.204057 v 2.904201 h 1.033525 q 0.485757,0 0.847491,-0.0827 0.361734,-0.0879 0.614948,-0.32039 0.232543,-0.21704 0.341063,-0.49609 0.113688,-0.28422 0.113688,-0.7183 z"
         style="stroke-width:0.264583"
         id="path30" />
      <path
         d="m 69.65009,102.74974 q 0,1.04903 -0.459919,1.90169 -0.454751,0.85266 -1.214392,1.32291 -0.527098,0.32556 -1.178219,0.47025 -0.645953,0.1447 -1.705317,0.1447 h -1.943027 v -7.694599 h 1.922357 q 1.126542,0 1.787999,0.165364 0.666623,0.160196 1.126542,0.444415 0.78548,0.490925 1.224728,1.30741 0.439248,0.81649 0.439248,1.93786 z m -1.069699,-0.0155 q 0,-0.90434 -0.315225,-1.52445 -0.315225,-0.62012 -0.940508,-0.97668 -0.454751,-0.258385 -0.966346,-0.35657 -0.511595,-0.103353 -1.224728,-0.103353 h -0.961178 v 5.937603 h 0.961178 q 0.738971,0 1.286739,-0.10852 0.552936,-0.10852 1.012855,-0.40307 0.573607,-0.36691 0.857826,-0.96635 0.289387,-0.59945 0.289387,-1.49861 z"
         style="stroke-width:0.264583"
         id="path32" />
      <path
         d="m 74.016734,106.58929 h -3.038565 v -0.78548 h 1.007688 v -6.12364 h -1.007688 v -0.785479 h 3.038565 v 0.785479 h -1.007687 v 6.12364 h 1.007687 z"
         style="stroke-width:0.264583"
         id="path34" />
      <path
         d="M 81.628648,106.58929 H 80.36258 l -3.648345,-6.883282 v 6.883282 h -0.956011 v -7.694599 h 1.586462 l 3.327951,6.283829 v -6.283829 h 0.956011 z"
         style="stroke-width:0.264583"
         id="path36" />
      <path
         d="m 93.462515,106.58929 h -1.090369 l -0.754474,-2.14457 h -3.327951 l -0.754474,2.14457 h -1.038693 l 2.800854,-7.694599 h 1.364253 z m -2.160068,-3.02306 -1.34875,-3.77754 -1.353919,3.77754 z"
         style="stroke-width:0.264583"
         id="path38" />
      <path
         d="m 100.37163,103.49905 q 0,0.83715 -0.18603,1.46243 -0.18087,0.62012 -0.599446,1.03353 -0.397907,0.39274 -0.930173,0.57361 -0.532265,0.18086 -1.24023,0.18086 -0.723468,0 -1.260901,-0.1912 -0.537433,-0.1912 -0.904335,-0.56327 -0.418577,-0.42375 -0.604612,-1.02319 -0.180867,-0.59945 -0.180867,-1.47277 v -4.604359 h 1.02319 v 4.656029 q 0,0.62529 0.08268,0.98702 0.08785,0.36173 0.289387,0.65629 0.227376,0.33589 0.614948,0.50642 0.392739,0.17054 0.940508,0.17054 0.552936,0 0.940508,-0.16537 0.387572,-0.17053 0.620115,-0.51159 0.201538,-0.29456 0.28422,-0.67179 0.08785,-0.38241 0.08785,-0.94568 v -4.681869 h 1.023188 z"
         style="stroke-width:0.264583"
         id="path40" />
      <path
         d="m 111.07896,101.22012 q 0,0.5116 -0.18087,0.95085 -0.1757,0.43408 -0.49609,0.75447 -0.39791,0.39791 -0.94051,0.59944 -0.5426,0.19637 -1.36942,0.19637 h -1.02319 v 2.86804 h -1.02319 v -7.694599 h 2.08772 q 0.69246,0 1.17305,0.118855 0.48059,0.113688 0.85266,0.361734 0.43925,0.294555 0.67696,0.7338 0.24288,0.43925 0.24288,1.11104 z m -1.06453,0.0258 q 0,-0.39791 -0.13953,-0.69246 -0.13953,-0.29456 -0.42375,-0.48059 -0.24804,-0.160197 -0.56843,-0.227376 -0.31523,-0.07235 -0.80099,-0.07235 h -1.01285 v 3.074746 h 0.86299 q 0.62012,0 1.00769,-0.10853 0.38757,-0.11368 0.63045,-0.35656 0.24288,-0.24805 0.34106,-0.52193 0.10336,-0.27389 0.10336,-0.61495 z"
         style="stroke-width:0.264583"
         id="path42" />
      <path
         d="m 118.16377,99.778355 q 0.47026,0.516765 0.7183,1.266065 0.25322,0.74931 0.25322,1.70015 0,0.95085 -0.25838,1.70532 -0.25322,0.74931 -0.71314,1.25056 -0.47542,0.52194 -1.12654,0.78548 -0.64595,0.26355 -1.47794,0.26355 -0.81132,0 -1.47794,-0.26871 -0.66146,-0.26872 -1.12654,-0.78032 -0.46509,-0.51159 -0.7183,-1.25573 -0.24805,-0.74414 -0.24805,-1.70015 0,-0.94051 0.24805,-1.68464 0.24804,-0.74931 0.72346,-1.281575 0.45475,-0.506428 1.12655,-0.775144 0.67695,-0.268717 1.47277,-0.268717 0.82682,0 1.48311,0.273884 0.66145,0.268717 1.12137,0.769977 z m -0.093,2.966215 q 0,-1.49861 -0.6718,-2.30993 -0.67179,-0.816482 -1.8345,-0.816482 -1.17305,0 -1.84485,0.816482 -0.66662,0.81132 -0.66662,2.30993 0,1.51412 0.68213,2.32027 0.68212,0.80098 1.82934,0.80098 1.14721,0 1.82417,-0.80098 0.68213,-0.80615 0.68213,-2.32027 z"
         style="stroke-width:0.264583"
         id="path44" />
      <path
         d="m 125.98756,99.804193 h -2.74918 v 6.785097 h -1.02319 v -6.785097 h -2.74918 v -0.909502 h 6.52155 z"
         style="stroke-width:0.264583"
         id="path46" />
      <path
         d="m 132.46776,106.58929 h -1.09037 l -0.75447,-2.14457 h -3.32795 l -0.75448,2.14457 h -1.03869 l 2.80085,-7.694599 h 1.36426 z m -2.16007,-3.02306 -1.34875,-3.77754 -1.35392,3.77754 z"
         style="stroke-width:0.264583"
         id="path48" />
      <path
         d="m 140.05384,106.02085 q -0.63045,0.28938 -1.37976,0.50643 -0.74414,0.21187 -1.44177,0.21187 -0.89916,0 -1.64847,-0.24805 -0.7493,-0.24804 -1.2764,-0.74414 -0.53227,-0.50126 -0.82165,-1.25056 -0.28939,-0.75448 -0.28939,-1.76216 0,-1.84485 1.07486,-2.909377 1.08004,-1.069698 2.96105,-1.069698 0.65629,0 1.33842,0.160196 0.68729,0.155029 1.47794,0.532266 v 1.214393 h -0.093 q -0.16019,-0.12402 -0.46508,-0.32556 -0.30489,-0.20154 -0.59945,-0.3359 -0.35656,-0.160194 -0.81131,-0.263546 -0.44959,-0.10852 -1.02319,-0.10852 -1.29191,0 -2.04638,0.831986 -0.74931,0.82682 -0.74931,2.24275 0,1.49345 0.78548,2.32543 0.78548,0.82682 2.1394,0.82682 0.49609,0 0.98701,-0.0982 0.4961,-0.0982 0.86816,-0.25321 v -1.88619 h -2.06188 v -0.89917 h 3.07474 z"
         style="stroke-width:0.264583"
         id="path50" />
      <path
         d="m 146.91128,106.58929 h -5.06944 v -7.694599 h 5.06944 v 0.909502 h -4.04625 v 2.108387 h 4.04625 v 0.90951 h -4.04625 v 2.85769 h 4.04625 z"
         style="stroke-width:0.264583"
         id="path52" />
      <path
         d="m 154.90042,106.58929 h -1.32808 l -2.57347,-3.05924 h -1.44177 v 3.05924 h -1.02319 v -7.694599 h 2.1549 q 0.69763,0 1.16272,0.09302 0.46508,0.08785 0.83715,0.320393 0.41858,0.263549 0.65112,0.666624 0.23771,0.397902 0.23771,1.012852 0,0.83199 -0.41858,1.39526 -0.41857,0.5581 -1.15238,0.84232 z m -2.39261,-5.52936 q 0,-0.33073 -0.11885,-0.58395 -0.11369,-0.25838 -0.38241,-0.43408 -0.2222,-0.149857 -0.52709,-0.206701 -0.30489,-0.06201 -0.7183,-0.06201 h -1.20406 v 2.904201 h 1.03352 q 0.48576,0 0.84749,-0.0827 0.36174,-0.0879 0.61495,-0.32039 0.23255,-0.21704 0.34107,-0.49609 0.11368,-0.28422 0.11368,-0.7183 z"
         style="stroke-width:0.264583"
         id="path54" />
    </g>
  </g>
</svg>
